<svg xmlns="http://www.w3.org/2000/svg" viewBox="0 0 200 200">
  <defs>
    <radialGradient id="bg" cx="50%" cy="40%" r="60%">
      <stop offset="0%" stop-color="#0a1a0f"/>
      <stop offset="100%" stop-color="#0d0a07"/>
    </radialGradient>
  </defs>
  <rect width="200" height="200" rx="12" fill="url(#bg)"/>
  <circle cx="100" cy="70" r="28" fill="none" stroke="#27ae60" stroke-width="2" opacity="0.6"/>
  <path d="M100 42 C88 42 78 52 78 64 C78 80 100 98 100 98 C100 98 122 80 122 64 C122 52 112 42 100 42Z" fill="none" stroke="#27ae60" stroke-width="1.5" opacity="0.3"/>
  <!-- Leaf icon -->
  <g transform="translate(100,130)" opacity="0.7">
    <path d="M0,-18 C-14,-10 -14,8 0,18 C14,8 14,-10 0,-18Z" fill="none" stroke="#27ae60" stroke-width="2"/>
    <line x1="0" y1="-14" x2="0" y2="18" stroke="#27ae60" stroke-width="1.5"/>
    <path d="M0,-6 C-6,-2 -6,4 0,8" fill="none" stroke="#27ae60" stroke-width="1" opacity="0.5"/>
    <path d="M0,-6 C6,-2 6,4 0,8" fill="none" stroke="#27ae60" stroke-width="1" opacity="0.5"/>
  </g>
  <text x="100" y="175" text-anchor="middle" fill="#27ae60" font-family="Georgia,serif" font-size="11" opacity="0.5">DRUID</text>
</svg>