<svg xmlns="http://www.w3.org/2000/svg" viewBox="0 0 200 200">
  <defs>
    <radialGradient id="bg" cx="50%" cy="40%" r="60%">
      <stop offset="0%" stop-color="#1a0f22"/>
      <stop offset="100%" stop-color="#0d0a07"/>
    </radialGradient>
  </defs>
  <rect width="200" height="200" rx="12" fill="url(#bg)"/>
  <circle cx="100" cy="70" r="28" fill="none" stroke="#8e44ad" stroke-width="2" opacity="0.6"/>
  <path d="M100 42 C88 42 78 52 78 64 C78 80 100 98 100 98 C100 98 122 80 122 64 C122 52 112 42 100 42Z" fill="none" stroke="#8e44ad" stroke-width="1.5" opacity="0.3"/>
  <!-- Gear icon -->
  <g transform="translate(100,130)" opacity="0.7">
    <circle cx="0" cy="0" r="10" fill="none" stroke="#8e44ad" stroke-width="2"/>
    <circle cx="0" cy="0" r="4" fill="#8e44ad" opacity="0.5"/>
    <line x1="0" y1="-14" x2="0" y2="-10" stroke="#8e44ad" stroke-width="3" stroke-linecap="round"/>
    <line x1="0" y1="10" x2="0" y2="14" stroke="#8e44ad" stroke-width="3" stroke-linecap="round"/>
    <line x1="-14" y1="0" x2="-10" y2="0" stroke="#8e44ad" stroke-width="3" stroke-linecap="round"/>
    <line x1="10" y1="0" x2="14" y2="0" stroke="#8e44ad" stroke-width="3" stroke-linecap="round"/>
    <line x1="-10" y1="-10" x2="-7" y2="-7" stroke="#8e44ad" stroke-width="3" stroke-linecap="round"/>
    <line x1="7" y1="7" x2="10" y2="10" stroke="#8e44ad" stroke-width="3" stroke-linecap="round"/>
    <line x1="10" y1="-10" x2="7" y2="-7" stroke="#8e44ad" stroke-width="3" stroke-linecap="round"/>
    <line x1="-7" y1="7" x2="-10" y2="10" stroke="#8e44ad" stroke-width="3" stroke-linecap="round"/>
  </g>
  <text x="100" y="175" text-anchor="middle" fill="#8e44ad" font-family="Georgia,serif" font-size="11" opacity="0.5">ARTIFICER</text>
</svg>