<svg xmlns="http://www.w3.org/2000/svg" viewBox="0 0 200 200">
  <defs>
    <radialGradient id="bg" cx="50%" cy="40%" r="60%">
      <stop offset="0%" stop-color="#15102a"/>
      <stop offset="100%" stop-color="#0d0a07"/>
    </radialGradient>
  </defs>
  <rect width="200" height="200" rx="12" fill="url(#bg)"/>
  <circle cx="100" cy="70" r="28" fill="none" stroke="#6c3483" stroke-width="2" opacity="0.6"/>
  <path d="M100 42 C88 42 78 52 78 64 C78 80 100 98 100 98 C100 98 122 80 122 64 C122 52 112 42 100 42Z" fill="none" stroke="#6c3483" stroke-width="1.5" opacity="0.3"/>
  <!-- Moon + stars icon -->
  <g transform="translate(100,130)" opacity="0.7">
    <path d="M4,-16 C-8,-14 -12,-4 -10,6 C-8,14 0,18 8,16 C2,14 -2,8 -2,0 C-2,-8 2,-14 4,-16Z" fill="none" stroke="#6c3483" stroke-width="2"/>
    <circle cx="10" cy="-10" r="1.5" fill="#6c3483"/>
    <circle cx="14" cy="-2" r="1" fill="#6c3483"/>
    <circle cx="12" cy="8" r="1.5" fill="#6c3483"/>
  </g>
  <text x="100" y="175" text-anchor="middle" fill="#6c3483" font-family="Georgia,serif" font-size="10" opacity="0.5">LUNAR SORCERER</text>
</svg>