<svg xmlns="http://www.w3.org/2000/svg" viewBox="0 0 200 200">
  <defs>
    <radialGradient id="bg" cx="50%" cy="40%" r="60%">
      <stop offset="0%" stop-color="#1a0f05"/>
      <stop offset="100%" stop-color="#0d0a07"/>
    </radialGradient>
  </defs>
  <rect width="200" height="200" rx="12" fill="url(#bg)"/>
  <circle cx="100" cy="70" r="28" fill="none" stroke="#d35400" stroke-width="2" opacity="0.6"/>
  <path d="M100 42 C88 42 78 52 78 64 C78 80 100 98 100 98 C100 98 122 80 122 64 C122 52 112 42 100 42Z" fill="none" stroke="#d35400" stroke-width="1.5" opacity="0.3"/>
  <!-- Lute/music icon -->
  <g transform="translate(100,130)" opacity="0.7">
    <ellipse cx="0" cy="6" rx="10" ry="12" fill="none" stroke="#d35400" stroke-width="2"/>
    <line x1="0" y1="-6" x2="0" y2="-20" stroke="#d35400" stroke-width="2"/>
    <line x1="-4" y1="-20" x2="4" y2="-20" stroke="#d35400" stroke-width="2" stroke-linecap="round"/>
    <circle cx="0" cy="6" r="3" fill="none" stroke="#d35400" stroke-width="1"/>
    <line x1="-2" y1="2" x2="-2" y2="10" stroke="#d35400" stroke-width="0.8" opacity="0.5"/>
    <line x1="2" y1="2" x2="2" y2="10" stroke="#d35400" stroke-width="0.8" opacity="0.5"/>
  </g>
  <text x="100" y="175" text-anchor="middle" fill="#d35400" font-family="Georgia,serif" font-size="11" opacity="0.5">BARD</text>
</svg>