<svg xmlns="http://www.w3.org/2000/svg" viewBox="0 0 200 200">
  <defs>
    <radialGradient id="bg" cx="50%" cy="40%" r="60%">
      <stop offset="0%" stop-color="#0a1a18"/>
      <stop offset="100%" stop-color="#0d0a07"/>
    </radialGradient>
  </defs>
  <rect width="200" height="200" rx="12" fill="url(#bg)"/>
  <circle cx="100" cy="70" r="28" fill="none" stroke="#16a085" stroke-width="2" opacity="0.6"/>
  <path d="M100 42 C88 42 78 52 78 64 C78 80 100 98 100 98 C100 98 122 80 122 64 C122 52 112 42 100 42Z" fill="none" stroke="#16a085" stroke-width="1.5" opacity="0.3"/>
  <!-- Bow and arrow icon -->
  <g transform="translate(100,130)" opacity="0.7">
    <path d="M-8,-16 C-14,-8 -14,8 -8,16" fill="none" stroke="#16a085" stroke-width="2.5" stroke-linecap="round"/>
    <line x1="-8" y1="-16" x2="-8" y2="16" stroke="#16a085" stroke-width="1.5"/>
    <line x1="-8" y1="0" x2="14" y2="0" stroke="#16a085" stroke-width="1.5" stroke-linecap="round"/>
    <path d="M14,0 L10,-3 M14,0 L10,3" stroke="#16a085" stroke-width="1.5" stroke-linecap="round"/>
  </g>
  <text x="100" y="175" text-anchor="middle" fill="#16a085" font-family="Georgia,serif" font-size="11" opacity="0.5">RANGER</text>
</svg>