<svg xmlns="http://www.w3.org/2000/svg" viewBox="0 0 200 200">
  <defs>
    <radialGradient id="bg" cx="50%" cy="40%" r="60%">
      <stop offset="0%" stop-color="#0a1220"/>
      <stop offset="100%" stop-color="#0d0a07"/>
    </radialGradient>
  </defs>
  <rect width="200" height="200" rx="12" fill="url(#bg)"/>
  <circle cx="100" cy="70" r="28" fill="none" stroke="#2980b9" stroke-width="2" opacity="0.6"/>
  <path d="M100 42 C88 42 78 52 78 64 C78 80 100 98 100 98 C100 98 122 80 122 64 C122 52 112 42 100 42Z" fill="none" stroke="#2980b9" stroke-width="1.5" opacity="0.3"/>
  <!-- Fist icon -->
  <g transform="translate(100,130)" opacity="0.7">
    <path d="M-8,8 L-8,-4 C-8,-8 -4,-12 0,-12 L4,-12 C8,-12 10,-8 10,-4 L10,4 C10,8 8,14 4,16 L-4,16 C-8,14 -10,10 -8,8Z" fill="none" stroke="#2980b9" stroke-width="2" stroke-linejoin="round"/>
    <line x1="-4" y1="-4" x2="-4" y2="4" stroke="#2980b9" stroke-width="1" opacity="0.5"/>
    <line x1="0" y1="-6" x2="0" y2="4" stroke="#2980b9" stroke-width="1" opacity="0.5"/>
    <line x1="4" y1="-6" x2="4" y2="4" stroke="#2980b9" stroke-width="1" opacity="0.5"/>
  </g>
  <text x="100" y="175" text-anchor="middle" fill="#2980b9" font-family="Georgia,serif" font-size="11" opacity="0.5">MONK</text>
</svg>