<svg xmlns="http://www.w3.org/2000/svg" viewBox="0 0 200 200">
  <defs>
    <radialGradient id="bg" cx="50%" cy="40%" r="60%">
      <stop offset="0%" stop-color="#1a0f22"/>
      <stop offset="100%" stop-color="#0d0a07"/>
    </radialGradient>
  </defs>
  <rect width="200" height="200" rx="12" fill="url(#bg)"/>
  <circle cx="100" cy="70" r="28" fill="none" stroke="#8e44ad" stroke-width="2" opacity="0.6"/>
  <path d="M100 42 C88 42 78 52 78 64 C78 80 100 98 100 98 C100 98 122 80 122 64 C122 52 112 42 100 42Z" fill="none" stroke="#8e44ad" stroke-width="1.5" opacity="0.3"/>
  <!-- Flask/potion icon -->
  <g transform="translate(100,130)" opacity="0.7">
    <path d="M-4,-18 L-4,-6 L-12,12 C-13,15 -11,18 -8,18 L8,18 C11,18 13,15 12,12 L4,-6 L4,-18Z" fill="none" stroke="#8e44ad" stroke-width="2" stroke-linejoin="round"/>
    <line x1="-6" y1="-18" x2="6" y2="-18" stroke="#8e44ad" stroke-width="2" stroke-linecap="round"/>
    <ellipse cx="0" cy="10" rx="7" ry="4" fill="#8e44ad" opacity="0.3"/>
  </g>
  <text x="100" y="175" text-anchor="middle" fill="#8e44ad" font-family="Georgia,serif" font-size="11" opacity="0.5">ARTIFICER</text>
</svg>